<mxfile host="app.diagrams.net" modified="2024-03-30T10:07:03.704Z" agent="Mozilla/5.0 (Windows NT 10.0; Win64; x64) AppleWebKit/537.36 (KHTML, like Gecko) Chrome/123.0.0.0 Safari/537.36" etag="ofTy2tbK4mwwO0d431wU" version="24.2.1" type="google">
  <diagram name="PÃ¡gina-1" id="wdikNAvu4fVzjbENS6Ey">
    <mxGraphModel grid="1" page="1" gridSize="10" guides="1" tooltips="1" connect="1" arrows="1" fold="1" pageScale="1" pageWidth="827" pageHeight="1169" math="0" shadow="0">
      <root>
        <mxCell id="0" />
        <mxCell id="1" parent="0" />
        <mxCell id="x6XZmTBG8CDncn58fOZb-1" value="" style="shape=image;verticalLabelPosition=bottom;labelBackgroundColor=default;verticalAlign=top;aspect=fixed;imageAspect=0;image=data:image/png,iVBORw0KGgoAAAANSUhEUgAAAOIAAAA/CAYAAAD9sBQmAAAcM0lEQVR4Ae2d+5sVxZnH/TOSPHmyLtkkm80mm6DrZqOucY25m3iJZhOvqCA3hSgxoIKKqHiJq9FojMYoBG+I3K9BYLiKguAkkXFY5I4wzDAwwDnj/FKbT/X59qmu031On8vMHOT8UE91V1dV1+muT3/fequ6zyk9XVkTG45kTE9iyJqew+WGbtNz2A8p6+jMmp6qQ7fp6UwIh7KmJ3XImJ5DcaGcOpy8HRnTU9OQNT0dXmjPmp72zIkVDmZMT1+HtozpqShkTU8bodLyGXNKLISCsxiIR1JCFALrQ8h+yjqqhhCQEyAkPTWEABQHIWkOXOVs1xRCoPYgZL8BYjqoKwZJIFYOYwkQswmqSHoupIWpmny9DWJZMDZA7BN17Ws15Hw1AbEyGIuDiDLGqqIDYtnKmFIFXXAbIJZhvjYUsWKTtu5BLADSA7EqGF2TNQWkFUNZxDS1Zms5pmWcKrrlddxNS9humKbxY9eGIiY4byIwxoBYFYwAmHLM2Gsg5kAtZ3wXySv43DgBvkg5L0/NwUwYN9qxY507cPoDRv+cFatkeaZuadNUjhvF1lRNALEqGBsgWodPX4JY7zD6UPTXfh/AWD6IVhk/xiCiuMUUK/GYq4TarqCuBoh5U7W/wPPPWzWI8qomq2SFIHbnvaaooBtcJ0tZ23WiiCcdiHU8x+gD0V/7NQMxGcgqQEyAsSz4XOeMnDZuWsx2b48R3fnGRPWLUzqpoBvH5SuR1teKWM/maX+B55+35iAWTnFUBqI1T2sNohw2KYCsGMYKVuhUBaMLnQso2+6xYtu1WnkTM60BhBZETforrmMnjg9Jf+1XDWfUTK0CREzSuGVwjqlakTqmANGtt1ehrNaTCmA+gNovBp9/rFYw+vUkwFnPy+H6Czz/vDUBUaZqtsQSN3lK42I7LiwBYkVe1AaI8WrpQ1SL/QaIfT/57yphLUCMeE9dIB1FrMiJU4cgSnVTm5OuokkB/djNk3a7FvC5dSSAGJqsdWii+srUX/t1o4iuSkZM1I8jiM6qnLJh9AHUflr4/HwuSNVuN0D8eChiLIy1AhFljPGa+mlSq16JHQDlTe13EAGzWgBV/gQE0b5JIqdSGXFvKWdVylgr01Qg9qci+mBqv1fA9NUpzb4U0I3TlCuVRzD1RpwDtJ6dNsXa1lvQlVtvGZBW7jUVhMQREN3xorZzKilIisQfAdDhbnNgxz4zfdorZt6MOeajzuOhOmY7jpkFM+fZY+27D9j0jzoz4fFQRT/2IAJqb0CoOlGbOhwjpmlTucD0Vv4TGUQg3LN1lzn3nHPNpz71KfOJT3zCXD/oOpNpP2phGzzoepvOsfPO/W+z6/0dhRC6oNcayJqYpqXUrpzjAqfWcQPEisePArtuQSwxnZHpALZuM37cHRa2U089NYRu9dKVZtWfmyyYQKhj5EUFBWqoiDWGsbvjuMkcPGYyB4/awH78NIMPkWuSatvPU+1+aQi7afuBrjCU/jyHN35Mo0T1kkcg1EucAsjamKYlzVPHgeMC4m0LxKGDb7DAfeYzn7HAoYqL5yw0C2fNt+lAyDHShw8Z1msgApsFLlTVws9qlAZS8LlxteDFlS+EEfhKAQec8XkaIFatiHoQ9CmIRWF0QCyiigLxxmEjrRJ++tOfNgQUcO5rs03ruy12GwCliOTtDUVE+fTBqs697WblkhXm+aefM8899ayZ8szzZsXCZaZzT3uoijZ/rNnqAqjtOJBqkZaH0YVwT8sOs3TuYvPck8+aZ5/4vZn6zAtm89qNVh0FoZs/SKtvEFvf2WI2NK03m9dstIHtbe+2BuNaARATb9vcajasWG82r95omtduMsf3HUn3PZuYuqoC1YPTUcRM/NfcXKdMudtpnDiOKgYgZo1ARPUIgPjylBctcBf9+MJQFUlPBaLOESpb8TWnUsGtzS1m3Jix5ox/P8O2gfO54bSBp5nJ99xvdrXssEAmw+hDJiD92M8X7FMv0B/Ze8jG3e1JZnGuvtzC8bdWrDPXXjXIfOHzX4i0W7+BMfarU14KgSyEUWB7UGrC365T7TuHTnfbMQva1k0t5qv/9lX7m3gg66H8/e98zyhPgaMpB9JPL7ksvBZfP+PrZs+Wnf0DIu1xYDwhQEQBp/1xqgWx+a1NZuDXBloYSR85dERpRQTElBAq36tTXw47MOdR5/Vjjn3pX75k5r02pwwYfQC1HwVRYFM3nebcc75pf/uGlevtuQqBzIM48Y67bJtpX1L7lX7pxT8x7739F2uixsNYHyBm9ndZEFF23Qf9PmKsp1WLVtg8BUDmQLzkxxeHfef0gac3QMx0dBkU0A1dBzotVKgcF9ZVxFemvmSPdR86brb+pcXcMupmezOGXDfYOni69ndahw1OGzeEzpsyQHzqsd+GnVhjUd14N6aNPI2JSZ/50owAkJKOHIHnx/EgvvjHP4Xt4VxNi5YH0LcdtbHvNBoz6pYwv9s+t+1s6xoT8zBpXrcpAcb6AFEqd8X/XG7bDni0naDfefftd1oQBa3KyIy89KKfhNem30GUudsW+a5p35imHx0+7sw7xs8vDr9hmL1YLohSxBAsPKUdx3LfukmxPrUEiFZ9OrNm6bwl4Y3SzUWB77t7kmlavNxsWLXeLF/4hhk/9g5rHrmdmfzv0pkPZQMnT8yYMVC5KIDdHccMwQdKivjS89PC6wFAKxevKABR6vjQvQ+EnVQdFSV94te/MWv+vNJgrs6bPtuMHnGTVRC3E2PaxTtv8iBmDhyNfju1PROUKeIxRZ1chSqAhDpyaheCk1AfZumAfxwQAsgDBNNbQJ5z9n+Zzl0HLYyRuhxF1EOobkA82A8gMvm/q3W7GT/udjNi6HAzctgIO85DBQN1y5rRI0eFnUljRCb233vnL+bnP/2ZzT9syFAzasRNNth6hubroa6h199gYdndmptnLAEiJilOGcZNbufEbNv3f7tjTdvd7+8wl11yqYVE0F5y4cUFQBWCGYCYOdgVeU0qyQOL0tJ5dC1kmgrcTE4Z32paFyqDOhsmajxcGQsmnZG8tJ/40QceiVHFrPEB7D54PEhzgLHncfYjIOTSXSDZ9gF0j7vllY/2cX/0kHnl+RfNvRPusW1XWtPCZYXmaf2DiBIq8AU3bSsu8lW3Us4b9+2L3HbH3jbb2bnp6iyKucCYqgBGmjoH6W+vetM0LVkeKePXoX3FlGNhwP4P9lqzVuM/P5YaTn32hfCGUsf5533Lwkl+8siJo33iowcOm3POPid8IlPOHy+6gC2atcDcfOMvDMCiVN89/zvmgXvuN81vBkrqQkveyRPvM9dccbVtF3Xzm3jQPPrgI+bO2yaY5QveCMF3TXryonryirowMg7UPlCrA1P3gAEDDF5WlSMGOl4gbt9xwHpeh10/1KCe3z7vfOsMeubxp83uLTuCzs+UiQMjUNwz/m5z57jxZtHr8+2xxTMXmLE332ou+P4PgzquHGSmPTvFdO05VAiQUxcwcl7aye9DGdu37zerF+fnl0m/cehIW4/gte05sUAUfH5cBYwerNNffMVeRCDjCU8s4Bj3YXqidvZCDxhgYzosgB5tO2w7rzqM6qAjyYwl1r7qZalc4hSHo5Q//cll9iZTB+dgEYELHdtuEMDN6zebByc9YJ545HEbY8IGn/gPAAauDaveMj/6wQX29/DbqN8NtPXeO+8xrkqOHhFYBuT75Cc/GVsWGKl/15bt5sv/+mVbJ/V/5ctfMfu27rKKK+hcuNhW+qyXZpgHJ002jz/8mHn43gdN66YtIYiB8yZrFs1cYB1Gftu1/8V//qJ5beqrAUgCvT0TqhW/4Yff+4Fxx6/u72cbMHe/t70ARqnk2yvetNeA+8t5B11xjc17/MMjBpOUOkg/7WunmT25B0P4UGiAGIV4wax5YYei8+lmMA7DCQMwerLrwi6avSBQtMNZw7ZuPrGg82Ng4jiBhQClQNzVsj3ijf3h939gVdAFT9sA6Iak/9WQEq5fsc46Q9x289tQH6XpOmBS663+OBB9IO++/S4LIspIXfrdY2/5lU3PtBVO2AOgwvH9R0LofFDlQX3lhZfCdqq9XG+C2q14yu+fD+Cg3vaMeeT+hyPtUnliBepRXwDGiJK1Z8Lx5YP3TLbn0wN26u9fsOfgPDqm3z/zxdfssbCuBohRELOdxwwrZ9wbwtxg81ubDR5RgGEcyHGUUBCRrgCMPAF1I+kEbn3aJ03jTpX1Y5mbm9dttB1L9diO3JlzunhKKCDzcczrUrmvhx9v6wpNV3U41LP5zc2GMeay+UutEnBeKfGTjz5hYXzikd+Y7377O5HfSj6uC2NXYhYZoIgsNOCYwrQ/TE0E0Qcubl9qielKnTwAuK44R5g+2PHXD8y2d7ea6VNeMRpncpzfwCS7lAiFVZsELsqNMk6++z4jDyh5OE485ekA5hCiHIxSPc7DPKKrekxb6DwcHzJocNiGoC3BK1NMX5CPPHXmrPHN0Lj9KExF/0HKM0Vj8x7JmNVvNJmFs+eb1uaWgs8x4pRhPKjpDB8e9jFV31q5zr6dgUeV6Q1iJv5ZhbNk7iKz5o1V5nhusXhcHbae3Aoa8nKD9GR+8N7JsWYpDh3GZ4CKWThh3HjrFMKLyvYvR48xU5+dYrqZVO/Mmj88+YytV52Q+UnAccPR/YctjHQO2sACgvadB0JlnPXy6zZdT/tNazZEylMX40yVp44lsxfZPIE3VRPzGbOtudWMo+3jxpsJtHnsHWb8r263ge2xt9xqVjDuzC0KYEGA6gWgd9cyxZH3orLNtAeAko8w9LobQggEoiA7+8yz8itgcuO/xx96LLxGtP3nl/0sLC8YGV9yTOHaKwfZPDpOfN43A0cbbaA94Uobe54GiAUrdphDXLNspYVl7ozZFh7B9OLzf7IgbVi93sKWBBDjRWAFWj8PcKOkq5Y25aY38mrq59U4b+2y1bYTyeyZdOfEWBBx/LhjMTqGOqC2USuNES/6UbASiGNX/OzyAoAEJB5PdTLiJXMWhiBqHlEgah6xa1+nkce0FIgyM1cvyTs2aLfa7MaMVQERp437W63KehAKyt8+8ri9DtRDmT0tOy0oPoj2AdGRNZjEVnVzMDJ+VnuAFScMSibQxtx0c3h/yCfTU8pLzBwix2RZ4ETK11H3IPpq17uK+NHfpy+uvXpQ2Ol08RW7HQLTa9Gc+cG84+H8O4dAxjQDeTFjgQuzllU3mLmqgzoHX3u9M99YCKTMYRwugpDyeG7zpmfeSQOIOjdjPMooVge4+oqrbFmWpblzXED58H0PmXvvnBQJkyfeb2775TiDw4NzE5554ukctBnjzyOuwYl0yPHkxpimKLHNo0n/nMK93RQ4PNRmYgKKJdCBBxCXzF4Ydmqu5Yghw81Dkx6wTiVgVSANTyp5qAdvplXV9ozNr9/EtRKgAkgw3jZmbHjfMBn3b92b+1/HrGnb9qE54/QzQlABPVC7rOna02kD9a1butrWIevjsosvtSDqXMSxpilv/efGkP0VO0vcBGQciEpTnsrjea/PCTsbN56gTuBuc/ME58LZ80xPDkTXWcNxHDuAiKPHXfrmQjX/9blWGYu9KrVn605rElIngakLVuv4MKKgTOrjGeW1rPVNa83Ml2eYz/3T52w5yl51+ZW2HGNAdW79HtVfKn7814+F6pkGxDVLo6b1sMFDoyDmXiLu3H3QrFq8wqCMxEzwS7UEDB5UQJw+9WV7rxgfco/S/gbyzZs+x0KAE0XluEY7//ZBBA6BeMett4X5Bn51YATEBa/lHXzUhdl50QUXWi80zh3U9MILfmy9soKQ68sDoWXD3+z55HlNBrF/YexzEP3pCxdCF0wpDRcUBWK8yLgQlbQXOedxxPEDiGNG3xKmU5Z6ickbLBjvTnxnUaoopRY8LCIARBwuPpDu/oLXg46i8wlE1BO1oQ0EnuTMOcaFs8882yjQ0V7H65cbSxYDUXn2b9trTj/t9PBcqOvWd1tiYdT4T/Fdt02wEOh3C8TZubGpHDVfP+M/7PXHaeKGs75xpvnC5z5vzvzPbxjl4W0IFAi1FIiAkQSiq4g+iDheuH7uw0B1xsXkI1Dm6ceeaoAY56jZv2OvvZnuBWTbDVxA7Wu7ackyw7hR6XR6tjEhAZRt5VVM2nnnnmfad7cVHStKKVE2yugmAoZdDOBM6ONlRRWlltv+2hoCQEfm3AKRfNRBGoGJfMDBEYPZ6gY7VvWcOErDwUO7BErTomUBYDianOV0vCmifJzv6suvssfJw1gSxw0BFbJK1JExyxcsDR9YlCUAD5Cilu6DhDc1SG/fsd+grAqHdrXZdIHNuFErcaS2tKcYiDiMODf5AHHf+7ssQLzuJEeQQFS+uFhpuocsOkhnmp5kigicu7fusEvcUDO7xG34SHNjLrDOdPSNo8yokTfZaQ7SGQfilEGhuNBcZHVKO5Y7nLXTFLyJgalKzLI33t7f2bLdWY9aOEb0nTfMH9IZBNW3v3W+eWfN27GK2Lx+k1Vr8tMm3XyNEVHNW3/xS1sf7UYR9cqUlExx6+YWu0qGdaTrlq2xKqx5SF8RMY1Vjlj5tmz8awiO2j/k2sGmc3f+vcmgXOBFZSJfoNF22kjQGBFYcZzw+wjWCZUba+ahC+pav3ytYRXNykXLDVMeWo1TKYiammDFDeeWtcHKmom332U9v/L2KpY3mKkNyqivuEveYhd92zFi3YGo8Z/GhW6sY5XHOGvCj01pqsNNy23jWQ3zkXY4Y6cnuMB0MnV6gPNhiu6nWBCec/ZQbvOb74Q3XTef8zHmmvbcVDN/xlz7YjAT7+rEHNdNp32AqPlJlq6prRzDpNuy8W8hSKjenFdn2ae+QNB6VSnijGnTQ0ioY9KEiXZJHOPCPa07bV3K684nCkZeocIZxMQ8YzccQUCl8xFTr/YFIrD97rEn7TH9xuuvuS6yBA51xGnDbxTMrG+VN7VSEPdv3WOVTPOM+i3L5v05onCu2mn7d48+aX+L2sxaVI7hgU0EEe9tPzpsYsaILmQuhP62m6/87cyhoyYSOrqCecMjGfuxKDoF4z6cMN2dxyyUzBWSzg3XRdb7iBpDYqa6IQqlFFFwEpMWeGRdE1WdCtjUQf3Y7bw8hQWuFFEwMjGvspShTpbTod5M2HOMdAJe1k1rN0bgWrEwWDVDPtql8xLjgUXlBCLbzG+qTrVJ53djty7UWvUKRE15yMEhGDAV8ZKitng4VY4YBe1gDjSnnAKR86Y2Tb820E5foIryOlOe8WfHjgMhVIDlBpa6ARxv3vO7KUObmF/UOtZCEIM1soK4MA6mPXp62bPabyDGjR+lgpijXEACntDmtzfZSX/mGkmjQwhEeU2BLx46wefG8SBSXjCyzvSsb+TNMrcD+9sTx99l1VI3/sqfX1FgyvIalY7rt/kxnY5PcLjmZrB9zDD1ofLEgkggyjwlPwHVczsjZdygc5OHtzsmjB1vry15BKLGkQe3f2h4s50yHFdZNyYdp5oWjGvpnEAkbzEQXWcNDwUAe+p/g/dC1W4WikvZCoGJfilA10tlVy5cbssqnfYwFtXa1uT6TkYQDx21ygeIXECZfswN8meoeD9JpxPWFkQX0jyMh/d1GNSMcaI6tW4s+ygf37JhLMgqHz29b7huSAGI5Fk4c751tVOW36C6KDfihuGGcaIPYQBWxuAVxTzmwUR5vKJ0JuYl48tkrfmKmYjDyD0f26jaqOE3hW99PP2bp2x9XFcWf6NogChVZJ8JckxrtZ96CLQJTytmKvkoI4ipizyfHfBZO0bWWxrq+DZfe8boiwKn/sOpVlUxTWWW8lupg7csKKepCNXhxgDMPuYpZXRPbh09xqazakcPctRbTiG3juj2yQpiV9Y6cOhk3HBiOmxr8xbDKhz2uZBcZNJlmlaniFEQXWWUym5tft++NIxnlZeH7dgstwYVNcI0ZPkbQR5Vd4rD3WaBOWtMUSJWyQBZAFzUxFSaFoETd33YGfG22qkVz9tqwXS+a3P8QJfBkcOD4LU/vWpYxRMsoQvU03pS245apw6OHUEk89KNgez9d94zi2ctMExv4FnFe6o8LrikUVfgXW03nbvaLQzRjh4oGQrKcULX3k6riEf2dNiXfHnRN/Zl39yqnLj6SFM5xaRhomqf+j/iFa+i9fQZiN0FS9DyZqM/LnT3yx8X5uuNL8uYkTw4YIAM2AQj61JZP0q6nmhAqXnEWoMoAGWqat8Fim07Niu5KDxYmaMxYx6w6JpT37zM54u+0R+AGS2bz5tP13RF3DGlkUfbQZxflyq4FPuQKZ242LEwX9EOHzUti8PRl3n7CsSjxUAUMC6A2tax2sUCMfYDw2+sNGuWBatHgBFAicMPDJc1RixUwAA0OW/ijzPxDywhUCkB9OFlX/XE1hWjcFFY8rCVk54GTAt5whRFCFQOvFTwRepyFoufkFDyAMiBWWMP6yk9gFgSRsGXJq4ezJ2tH4TrOYHNvsp0JHjjgm3SCKyyCT+F4bwmFapX6jTXeVMcxjioapdWzj8Ux6kkaZVBmi+XrIguiJVtN0BMmiLJg1gUxjQAKk91INp5xr+PE9v3HLB/NLNg1lyTtU6c4ENTfHxq/sy59tj+7cEnMGL/hCY1hKifD6L2Y5SxChUsDWwDxPoxSZPM395WRAtikpkqyNLE1YFYMI6MTPan+2J49Yp4MoOIoubUNmJW1kIpG4qYUhHrHURW5XgwHikCTWpVVB1+fDIqomPaNkCM8aj2qyLGqVySOsblrSItoogJIFoYY6A56UB0ICoYK2pMWSyPd6wBYl+CmDU9R3NBaz9Tx3EwVgFd3HmtAjrrU+MUERBJTw2en9dXQnffz5uwX5OxY8y3bwqA8mApOC7gisWl6sgdrzmIceatY6728X9p1H48WvlUxykhhMAYB0LRtAaIIfwNEMNJ/fI9qg6MdTetwYS/G5KcOM7URgXrUqMgpprKcIHtSxB13pz6hcrIvpdWtjK6CuhvJyigf44GiA0QNcdYNYion2AsOp0hKPoAxDhFjpirct545qsPStF9Hz53/yQG0TV7e9VMbShivCIKxq4kL+rJBGJKKD+OitgA0TNLe29dqgeip4jhuLEUkAKzH+LQRJUy5uKiCphS5cqpoyYg5r8WF0z+47xJ6VgJoSnmpPGPlVF3nyii48ypu7FisbGhe6yy6Y0YEB0vqryp1kwtB0bfZO0lQJMg9NPLAarSvLEg8pHh4EPDpVfV+BCyH+NFVVoIXjGYfPDi9ouV9471KowOhDrPCQuj57hJMXZMD2KqMaOAa4BYGXg+jA0Qaz/F4KpXb247Uxk1BzG1MtYZiFLIStUuTblYRfTBKne/zkDMfRu1/OmJGLWT6hWLTypFPMbbF3HmqJuWe0MjdOJI+ZLiPgLRelRjpi8Enh+nAarSPEkgqr6k40XT6w1EvJsVQlVJuQaILoRseyCWVMb+ANGbS/QhZF9Q9EacBJR7rqQ8iel1CGJfquJJByKqqFBSHQVpMedNf4FYAkYXiv7YTgQuyWQtAmJNnDaeMyaVA4gyfaiKKOkJDWSK9h/MmFNCACsBMVEZfRCT9pNM23LSZZoq9qYxXGXsD/jcczZArMy0/biD2J4x/w+GjgETt1fnRwAAAABJRU5ErkJggg==;" vertex="1" parent="1">
          <mxGeometry x="790" y="320" width="226" height="63" as="geometry" />
        </mxCell>
        <mxCell id="x6XZmTBG8CDncn58fOZb-19" style="edgeStyle=orthogonalEdgeStyle;rounded=0;orthogonalLoop=1;jettySize=auto;html=1;" edge="1" parent="1" source="x6XZmTBG8CDncn58fOZb-3" target="x6XZmTBG8CDncn58fOZb-5">
          <mxGeometry relative="1" as="geometry" />
        </mxCell>
        <mxCell id="x6XZmTBG8CDncn58fOZb-3" value="&lt;ul&gt;&lt;li&gt;business 1&lt;/li&gt;&lt;li&gt;business 2&lt;/li&gt;&lt;li&gt;...&lt;/li&gt;&lt;/ul&gt;" style="text;html=1;align=center;verticalAlign=middle;whiteSpace=wrap;rounded=0;" vertex="1" parent="1">
          <mxGeometry x="-210" y="230" width="140" height="80" as="geometry" />
        </mxCell>
        <mxCell id="x6XZmTBG8CDncn58fOZb-8" style="edgeStyle=orthogonalEdgeStyle;rounded=0;orthogonalLoop=1;jettySize=auto;html=1;" edge="1" parent="1" source="x6XZmTBG8CDncn58fOZb-5" target="x6XZmTBG8CDncn58fOZb-7">
          <mxGeometry relative="1" as="geometry" />
        </mxCell>
        <mxCell id="x6XZmTBG8CDncn58fOZb-17" style="edgeStyle=orthogonalEdgeStyle;rounded=0;orthogonalLoop=1;jettySize=auto;html=1;" edge="1" parent="1" source="x6XZmTBG8CDncn58fOZb-5" target="x6XZmTBG8CDncn58fOZb-6">
          <mxGeometry relative="1" as="geometry">
            <Array as="points">
              <mxPoint x="120" y="610" />
            </Array>
          </mxGeometry>
        </mxCell>
        <mxCell id="x6XZmTBG8CDncn58fOZb-5" value="prompt" style="rounded=1;whiteSpace=wrap;html=1;" vertex="1" parent="1">
          <mxGeometry x="50" y="230" width="120" height="60" as="geometry" />
        </mxCell>
        <mxCell id="x6XZmTBG8CDncn58fOZb-6" value="LLM" style="rounded=1;whiteSpace=wrap;html=1;" vertex="1" parent="1">
          <mxGeometry x="480" y="525" width="120" height="60" as="geometry" />
        </mxCell>
        <mxCell id="x6XZmTBG8CDncn58fOZb-15" style="edgeStyle=orthogonalEdgeStyle;rounded=0;orthogonalLoop=1;jettySize=auto;html=1;" edge="1" parent="1" source="x6XZmTBG8CDncn58fOZb-7" target="x6XZmTBG8CDncn58fOZb-13">
          <mxGeometry relative="1" as="geometry" />
        </mxCell>
        <mxCell id="x6XZmTBG8CDncn58fOZb-7" value="&lt;div&gt;&lt;ul&gt;&lt;li&gt;regulation 1&lt;/li&gt;&lt;li&gt;regulation 2&lt;/li&gt;&lt;li&gt;regulation 3&lt;/li&gt;&lt;li&gt;regulation 4&lt;/li&gt;&lt;li&gt;...&lt;/li&gt;&lt;/ul&gt;&lt;/div&gt;" style="shape=cylinder3;whiteSpace=wrap;html=1;boundedLbl=1;backgroundOutline=1;size=15;" vertex="1" parent="1">
          <mxGeometry x="260" y="210" width="210" height="147" as="geometry" />
        </mxCell>
        <mxCell id="x6XZmTBG8CDncn58fOZb-16" style="edgeStyle=orthogonalEdgeStyle;rounded=0;orthogonalLoop=1;jettySize=auto;html=1;" edge="1" parent="1" source="x6XZmTBG8CDncn58fOZb-10" target="x6XZmTBG8CDncn58fOZb-6">
          <mxGeometry relative="1" as="geometry" />
        </mxCell>
        <mxCell id="x6XZmTBG8CDncn58fOZb-10" value="&lt;ul&gt;&lt;li&gt;regulation 14&lt;/li&gt;&lt;li&gt;regulation 32&lt;/li&gt;&lt;/ul&gt;" style="text;html=1;align=center;verticalAlign=middle;whiteSpace=wrap;rounded=0;" vertex="1" parent="1">
          <mxGeometry x="520" y="420" width="140" height="50" as="geometry" />
        </mxCell>
        <mxCell id="x6XZmTBG8CDncn58fOZb-14" style="edgeStyle=orthogonalEdgeStyle;rounded=0;orthogonalLoop=1;jettySize=auto;html=1;" edge="1" parent="1" source="x6XZmTBG8CDncn58fOZb-13" target="x6XZmTBG8CDncn58fOZb-10">
          <mxGeometry relative="1" as="geometry" />
        </mxCell>
        <mxCell id="x6XZmTBG8CDncn58fOZb-13" value="retriever" style="rounded=1;whiteSpace=wrap;html=1;" vertex="1" parent="1">
          <mxGeometry x="520" y="240" width="120" height="60" as="geometry" />
        </mxCell>
        <mxCell id="x6XZmTBG8CDncn58fOZb-18" value="&lt;font style=&quot;font-size: 24px;&quot;&gt;architecture 1&lt;/font&gt;" style="text;html=1;align=center;verticalAlign=middle;whiteSpace=wrap;rounded=0;" vertex="1" parent="1">
          <mxGeometry x="70" y="160" width="190" height="30" as="geometry" />
        </mxCell>
      </root>
    </mxGraphModel>
  </diagram>
</mxfile>
